# xmcd
#
# Track frame offsets: 
#        150
#        15391
#        32497
#        50188
#        72158
#        87290
#        104761
#        124470
#        140089
#        156806
#        175591
#        193784
#
# Disc length: 2758 seconds
#
# Revision: 0
# Processed by: cddbd v1.5.2PL0 Copyright (c) Steve Scherf et al.
# Submitted via: ExactAudioCopy v0.99pb4
#
DISCID=a90ac40c
DTITLE=unbroken - D-side
DYEAR=1900
DGENRE=Folk
TTITLE0=unbroken
TTITLE1=let me be the one
TTITLE2=mothers son 
TTITLE3=dare to dream
TTITLE4=no noe
TTITLE5=bullet proof
TTITLE6=missing you
TTITLE7=never too yong
TTITLE8=my faith in you
TTITLE9=fly
TTITLE10=million ways
TTITLE11=misunderstood
EXTD=
EXTT0=
EXTT1=
EXTT2=
EXTT3=
EXTT4=
EXTT5=
EXTT6=
EXTT7=
EXTT8=
EXTT9=
EXTT10=
EXTT11=
PLAYORDER=
